<svg id="Capa_1" enable-background="new 0 0 512 512" height="512" viewBox="0 0 512 512" width="512" xmlns="http://www.w3.org/2000/svg"><g><path d="m446.059 58.167c-7.171 0-378.037 0-380.116 0-19.799 0-35.907 16.108-35.907 35.908v269.335c0 17.512 12.977 32.688 30.246 35.455l6.467 5.163h372.924l12.047-5.163c17.269-2.767 30.246-17.943 30.246-35.455 0-8.961 0-261.23 0-269.336 0-19.799-16.108-35.907-35.907-35.907z" fill="#365e7d"/><path d="m64.289 363.41v-269.336c0-19.8 16.108-35.908 35.907-35.908-20.909 0-33.87 0-34.253 0-19.799 0-35.907 16.108-35.907 35.908v269.336c0 17.512 12.977 32.688 30.246 35.455l6.467 5.163h34.253l-6.467-5.163c-17.27-2.767-30.246-17.943-30.246-35.455z" fill="#2b4d66"/><path d="m445.338 121.588h-376.53l-6.516 6.802v232.066c0 3.558 2.884 6.443 6.442 6.443h374.532c3.557 0 6.442-2.885 6.442-6.443 0-6.084 0-225.025 0-232.066z" fill="#e4f6ff"/><path d="m104.17 360.456v-232.066l6.516-6.802h-41.878l-6.516 6.802v232.066c0 3.558 2.884 6.443 6.442 6.443h41.878c-3.558 0-6.442-2.885-6.442-6.443z" fill="#d3effb"/><path d="m104.17 90.183h-35.436c-3.558 0-6.442 2.885-6.442 6.443v31.765h41.878l2.755-2.939v-33.224z" fill="#dd636e"/><path d="m443.266 90.182c-16.637 0-325.911 0-339.096 0v38.208h345.538v-31.765c0-3.558-2.884-6.443-6.442-6.443z" fill="#b1e4f9"/><path d="m186.079 174.405h-75.222c-3.693 0-6.687 2.994-6.687 6.687v139.793h88.595v-139.794c0-3.693-2.993-6.686-6.686-6.686z" fill="#3f6d8e"/><path d="m134.206 174.405h-23.349c-3.693 0-6.687 2.994-6.687 6.686v139.793h23.349v-139.793c0-3.693 2.993-6.686 6.687-6.686z" fill="#365e7d"/><path d="m163.733 320.884v-27.522c0-1.273-1.032-2.304-2.304-2.304h-25.922c-1.273 0-2.304 1.032-2.304 2.304v27.522z" fill="#e4f6ff"/><path d="m150.772 291.057h-15.266c-1.273 0-2.304 1.032-2.304 2.304v27.522h15.266v-27.522c0-1.272 1.031-2.304 2.304-2.304z" fill="#d3effb"/><path d="m506.005 398.865h-500.01c-3.311 0-5.995 2.71-5.995 6.054v20.823c0 15.45 12.519 28.091 27.82 28.091h456.36c15.301 0 27.82-12.641 27.82-28.091v-20.823c0-3.344-2.684-6.054-5.995-6.054z" fill="#407093"/><path d="m62.293 425.742v-20.823c0-3.344 2.684-6.054 5.995-6.054h-62.292c-3.311 0-5.995 2.71-5.995 6.054v20.823c0 15.45 12.519 28.091 27.82 28.091h62.293c-15.302 0-27.821-12.641-27.821-28.091z" fill="#365e7d"/><path d="m181.32 398.865v13.97c0 6.866 5.563 12.484 12.363 12.484h124.635c6.8 0 12.363-5.618 12.363-12.484v-13.97z" fill="#5c90b9"/><path d="m243.612 412.835v-13.97h-62.292v13.97c0 6.866 5.563 12.484 12.363 12.484h62.293c-6.8.001-12.364-5.618-12.364-12.484z" fill="#4a80aa"/><path d="m278.961 320.884v-78.254c0-1.273-1.032-2.304-2.304-2.304h-25.922c-1.273 0-2.304 1.032-2.304 2.304v78.254z" fill="#dd636e"/><path d="m340.024 320.884v-106.586c0-1.273-1.032-2.304-2.304-2.304h-25.922c-1.273 0-2.304 1.032-2.304 2.304v106.586z" fill="#ffaa5b"/><path d="m401.086 320.884v-134.918c0-1.273-1.032-2.304-2.304-2.304h-25.922c-1.273 0-2.304 1.032-2.304 2.304v134.918z" fill="#b3e59f"/><path d="m268.076 240.326h-17.341c-1.273 0-2.304 1.032-2.304 2.304v78.254h17.341v-78.254c0-1.273 1.031-2.304 2.304-2.304z" fill="#da4a54"/><path d="m329.138 211.994h-17.341c-1.273 0-2.304 1.032-2.304 2.304v106.586h17.341v-106.586c0-1.273 1.032-2.304 2.304-2.304z" fill="#ff9838"/><path d="m390.2 183.662h-17.341c-1.273 0-2.304 1.032-2.304 2.304v134.918h17.341v-134.918c0-1.273 1.032-2.304 2.304-2.304z" fill="#95d6a4"/><g><path d="m408.85 328.61h-168.177c-4.267 0-7.726-3.459-7.726-7.726 0-4.268 3.459-7.726 7.726-7.726h168.177c4.267 0 7.726 3.459 7.726 7.726s-3.459 7.726-7.726 7.726z" fill="#b1e4f9"/></g><g><path d="m200.497 328.61h-103.791c-4.267 0-7.726-3.459-7.726-7.726 0-4.268 3.459-7.726 7.726-7.726h103.79c4.267 0 7.726 3.459 7.726 7.726.001 4.268-3.458 7.726-7.725 7.726z" fill="#b3e59f"/></g><g><path d="m165.639 269.858h-34.342c-4.267 0-7.726-3.459-7.726-7.726 0-4.268 3.459-7.726 7.726-7.726h34.342c4.267 0 7.726 3.459 7.726 7.726s-3.459 7.726-7.726 7.726z" fill="#b1e4f9"/></g><g><path d="m165.639 241.525h-34.342c-4.267 0-7.726-3.459-7.726-7.726 0-4.268 3.459-7.726 7.726-7.726h34.342c4.267 0 7.726 3.459 7.726 7.726s-3.459 7.726-7.726 7.726z" fill="#b1e4f9"/></g><g><path d="m165.639 213.193h-34.342c-4.267 0-7.726-3.459-7.726-7.726 0-4.268 3.459-7.726 7.726-7.726h34.342c4.267 0 7.726 3.459 7.726 7.726 0 4.268-3.459 7.726-7.726 7.726z" fill="#b1e4f9"/></g></g></svg>